<svg width="358" height="300" viewBox="0 0 358 300" fill="none" xmlns="http://www.w3.org/2000/svg">
<path d="M355.4 294.24C356.36 294.24 356.84 295.2 356.84 297.12C357.16 299.04 356.68 300 355.4 300C345.8 300 338.12 299.84 332.36 299.52L296.84 299.04L262.76 299.52C257 299.84 248.84 300 238.28 300C237.32 300 236.84 299.04 236.84 297.12C236.84 295.2 237.32 294.24 238.28 294.24C248.2 294.24 255.4 293.44 259.88 291.84C264.68 290.24 267.88 287.2 269.48 282.72C271.08 277.92 271.56 270.72 270.92 261.12L264.2 32.16L172.04 296.64C171.4 297.92 170.28 298.56 168.68 298.56C166.76 298.56 165.32 297.76 164.36 296.16L57.8 44.16L56.84 237.6C56.2 255.2 59.24 269.12 65.96 279.36C73 289.28 82.6 294.24 94.76 294.24C95.72 294.24 96.2 295.2 96.2 297.12C96.2 299.04 95.72 300 94.76 300C86.76 300 80.36 299.84 75.56 299.52L47.24 299.04L22.28 299.52C17.48 299.84 10.6 300 1.64 300C1 300 0.680001 299.04 0.680001 297.12C0.680001 295.2 1 294.24 1.64 294.24C13.8 294.24 23.4 289.28 30.44 279.36C37.8 269.44 41.48 256 41.48 239.04L43.88 21.6C33.96 11.04 20.52 5.75998 3.56 5.75998C2.6 5.75998 2.12 4.79999 2.12 2.87999C2.12 0.959997 2.6 0 3.56 0C8.36 0 12.36 0.159998 15.56 0.479994L36.2 0.959988L67.88 0.479994C71.4 0.159998 75.72 0 80.84 0C85 0 88.36 1.6 90.92 4.8C93.8 7.99999 97.32 14.72 101.48 24.96L185.96 222.24L258.44 12C259.4 8.48 261.32 5.59999 264.2 3.35999C267.4 1.12 271.08 0 275.24 0C280.36 0 284.68 0.159998 288.2 0.479994L309.8 0.959988L331.4 0.479994C334.6 0.159998 339.24 0 345.32 0C346.28 0 346.76 0.959997 346.76 2.87999C346.76 4.79999 346.44 5.75998 345.8 5.75998C335.56 5.75998 327.88 7.51998 322.76 11.04C317.96 14.24 315.56 20.48 315.56 29.76C315.56 33.28 315.72 36 316.04 37.92L322.76 261.12C323.4 270.72 324.52 277.92 326.12 282.72C328.04 287.2 331.08 290.24 335.24 291.84C339.4 293.44 346.12 294.24 355.4 294.24Z" fill="#D9D9D9" fill-opacity="0.2"/>
</svg>
