<svg width="205" height="38" viewBox="0 0 205 38" fill="none" xmlns="http://www.w3.org/2000/svg">
<path d="M32.5194 28.472C32.6074 28.472 32.6514 28.56 32.6514 28.736C32.6807 28.912 32.6367 29 32.5194 29C31.6394 29 30.9354 28.9853 30.4074 28.956L27.1514 28.912L24.0274 28.956C23.4994 28.9853 22.7514 29 21.7834 29C21.6954 29 21.6514 28.912 21.6514 28.736C21.6514 28.56 21.6954 28.472 21.7834 28.472C22.6927 28.472 23.3527 28.3987 23.7634 28.252C24.2034 28.1053 24.4967 27.8267 24.6434 27.416C24.79 26.976 24.834 26.316 24.7754 25.436L24.1594 4.448L15.7114 28.692C15.6527 28.8093 15.55 28.868 15.4034 28.868C15.2274 28.868 15.0954 28.7947 15.0074 28.648L5.23937 5.548L5.15137 23.28C5.0927 24.8933 5.37137 26.1693 5.98737 27.108C6.63271 28.0173 7.51271 28.472 8.62737 28.472C8.71537 28.472 8.75937 28.56 8.75937 28.736C8.75937 28.912 8.71537 29 8.62737 29C7.89404 29 7.30737 28.9853 6.86737 28.956L4.27137 28.912L1.98337 28.956C1.54337 28.9853 0.912705 29 0.0913714 29C0.0327047 29 0.00337139 28.912 0.00337139 28.736C0.00337139 28.56 0.0327047 28.472 0.0913714 28.472C1.20604 28.472 2.08604 28.0173 2.73137 27.108C3.40604 26.1987 3.74337 24.9667 3.74337 23.412L3.96337 3.48C3.05404 2.512 1.82204 2.028 0.267371 2.028C0.179371 2.028 0.135371 1.94 0.135371 1.764C0.135371 1.588 0.179371 1.5 0.267371 1.5C0.707371 1.5 1.07404 1.51467 1.36737 1.544L3.25937 1.588L6.16337 1.544C6.48604 1.51467 6.88204 1.5 7.35137 1.5C7.73271 1.5 8.04071 1.64667 8.27537 1.94C8.53937 2.23333 8.86204 2.84933 9.24337 3.788L16.9874 21.872L23.6314 2.6C23.7194 2.27733 23.8954 2.01333 24.1594 1.808C24.4527 1.60267 24.79 1.5 25.1714 1.5C25.6407 1.5 26.0367 1.51467 26.3594 1.544L28.3394 1.588L30.3194 1.544C30.6127 1.51467 31.038 1.5 31.5954 1.5C31.6834 1.5 31.7274 1.588 31.7274 1.764C31.7274 1.94 31.698 2.028 31.6394 2.028C30.7007 2.028 29.9967 2.18933 29.5274 2.512C29.0874 2.80533 28.8674 3.37733 28.8674 4.228C28.8674 4.55066 28.882 4.8 28.9114 4.976L29.5274 25.436C29.586 26.316 29.6887 26.976 29.8354 27.416C30.0114 27.8267 30.29 28.1053 30.6714 28.252C31.0527 28.3987 31.6687 28.472 32.5194 28.472ZM64.3627 28.472C64.4507 28.472 64.4947 28.56 64.4947 28.736C64.4947 28.912 64.4507 29 64.3627 29C63.8347 29 63.0133 28.9707 61.8987 28.912C60.6667 28.8533 59.684 28.824 58.9507 28.824C58.188 28.824 57.2493 28.8533 56.1347 28.912C55.0787 28.9707 54.3013 29 53.8027 29C53.6853 29 53.6267 28.912 53.6267 28.736C53.6267 28.56 53.6853 28.472 53.8027 28.472C54.6827 28.472 55.3133 28.384 55.6947 28.208C56.076 28.0027 56.2667 27.6507 56.2667 27.152C56.2667 26.712 56.0907 26.096 55.7387 25.304L51.8667 16.02H44.9147L41.9227 23.324C41.4533 24.4387 41.2187 25.3333 41.2187 26.008C41.2187 26.8587 41.556 27.4893 42.2307 27.9C42.9053 28.2813 43.9467 28.472 45.3547 28.472C45.472 28.472 45.5307 28.56 45.5307 28.736C45.5307 28.912 45.4573 29 45.3107 29C44.9293 29 44.0933 28.9707 42.8027 28.912C41.336 28.8533 40.2213 28.824 39.4587 28.824C38.7547 28.824 37.9333 28.8533 36.9947 28.912C36.1733 28.9707 35.4987 29 34.9707 29C34.8533 29 34.7947 28.912 34.7947 28.736C34.7947 28.56 34.8533 28.472 34.9707 28.472C35.8507 28.472 36.804 28.0027 37.8307 27.064C38.8867 26.096 39.796 24.7467 40.5587 23.016L49.8427 1.104C49.8427 1.016 49.9453 0.971999 50.1507 0.971999C50.4147 0.971999 50.6053 1.03067 50.7227 1.148L60.5787 25.304C61.0187 26.3307 61.3413 27.02 61.5467 27.372C61.7813 27.724 62.104 28.0027 62.5147 28.208C62.9253 28.384 63.5413 28.472 64.3627 28.472ZM45.4427 14.788H51.3827L48.3907 7.616L45.4427 14.788ZM67.7197 37.492C67.6024 37.5213 67.4997 37.4627 67.4117 37.316C67.353 37.1693 67.353 37.0667 67.4117 37.008C68.7024 36.216 69.6264 35.0133 70.1837 33.4C70.741 31.816 70.9904 29.7627 70.9317 27.24V5.064C70.9317 4.21333 70.8437 3.58267 70.6677 3.172C70.521 2.732 70.2424 2.43866 69.8317 2.292C69.421 2.116 68.7904 2.028 67.9397 2.028C67.8517 2.028 67.8077 1.94 67.8077 1.764C67.8077 1.588 67.8517 1.5 67.9397 1.5L70.2277 1.544C71.4597 1.60267 72.457 1.632 73.2197 1.632C74.217 1.632 75.361 1.60267 76.6517 1.544L78.7197 1.5C78.8077 1.5 78.8517 1.588 78.8517 1.764C78.881 1.94 78.837 2.028 78.7197 2.028C77.869 2.028 77.2384 2.116 76.8277 2.292C76.417 2.468 76.1384 2.776 75.9917 3.216C75.8744 3.62667 75.801 4.272 75.7717 5.152V26.052C75.7717 28.34 75.493 30.188 74.9357 31.596C74.4077 33.0333 73.5717 34.192 72.4277 35.072C71.2837 35.952 69.7144 36.7587 67.7197 37.492ZM105.424 22.004C105.483 21.9453 105.556 21.916 105.644 21.916C105.732 21.916 105.82 21.9453 105.908 22.004C105.996 22.0333 106.025 22.0627 105.996 22.092C105.703 23.9987 105.556 26.0813 105.556 28.34C105.556 28.5747 105.512 28.7507 105.424 28.868C105.336 28.956 105.16 29 104.896 29H84.8319C84.7146 29 84.6559 28.912 84.6559 28.736C84.6559 28.56 84.6999 28.472 84.7879 28.472C85.6679 28.472 86.2986 28.3987 86.6799 28.252C87.0906 28.1053 87.3546 27.8267 87.4719 27.416C87.6186 27.0053 87.6919 26.3453 87.6919 25.436V5.064C87.6919 4.184 87.6186 3.53867 87.4719 3.128C87.3253 2.71733 87.0466 2.43866 86.6359 2.292C86.2253 2.116 85.6093 2.028 84.7879 2.028C84.6999 2.028 84.6413 1.94 84.6119 1.764C84.6119 1.588 84.6413 1.5 84.6999 1.5H103.664C103.899 1.5 104.016 1.632 104.016 1.896L104.104 7.704C104.104 7.792 104.016 7.836 103.84 7.836C103.693 7.836 103.605 7.80667 103.576 7.748C103.077 6.10533 102.168 4.81467 100.848 3.876C99.5573 2.908 98.0173 2.424 96.2279 2.424H95.3919C94.4826 2.424 93.8226 2.49733 93.4119 2.644C93.0306 2.76133 92.7813 2.996 92.6639 3.348C92.5466 3.7 92.4733 4.28666 92.4439 5.108V14.084H97.9439C99.4399 14.084 100.54 13.82 101.244 13.292C101.948 12.764 102.3 11.9133 102.3 10.74C102.3 10.6227 102.403 10.564 102.608 10.564C102.813 10.564 102.916 10.6373 102.916 10.784L102.872 13.204C102.843 13.556 102.828 14.0547 102.828 14.7C102.828 15.6387 102.843 16.3427 102.872 16.812L102.916 19.188C102.916 19.3347 102.828 19.408 102.652 19.408C102.564 19.408 102.476 19.3933 102.388 19.364C102.329 19.3053 102.3 19.2467 102.3 19.188C102.3 17.9267 101.904 16.9733 101.112 16.328C100.349 15.6533 99.2639 15.316 97.8559 15.316H92.4439V25.26C92.4439 26.4333 92.6199 27.196 92.9719 27.548C93.3533 27.9 94.1306 28.076 95.3039 28.076H96.5359C98.4426 28.076 100.188 27.5333 101.772 26.448C103.356 25.3333 104.573 23.852 105.424 22.004ZM116.788 5.68C116.788 6.736 117.066 7.68933 117.624 8.54C118.181 9.39067 118.856 10.1387 119.648 10.784C120.469 11.4 121.569 12.148 122.948 13.028C124.444 13.996 125.617 14.832 126.468 15.536C127.348 16.24 128.096 17.0907 128.712 18.088C129.328 19.056 129.636 20.1707 129.636 21.432C129.636 23.9253 128.756 25.9053 126.996 27.372C125.265 28.8093 123.021 29.528 120.264 29.528C118.944 29.528 117.536 29.352 116.04 29C114.544 28.6187 113.546 28.208 113.048 27.768C112.901 27.68 112.798 27.592 112.74 27.504C112.71 27.3867 112.681 27.196 112.652 26.932L112.476 19.936C112.446 19.8187 112.505 19.7453 112.652 19.716C112.828 19.6867 112.945 19.7307 113.004 19.848C113.825 21.5493 114.588 22.9867 115.292 24.16C116.025 25.304 116.905 26.3013 117.932 27.152C118.958 28.0027 120.117 28.428 121.408 28.428C123.989 28.428 125.28 27.02 125.28 24.204C125.28 22.8547 124.972 21.6667 124.356 20.64C123.769 19.6133 123.036 18.7627 122.156 18.088C121.305 17.384 120.161 16.5627 118.724 15.624C117.404 14.7733 116.348 14.04 115.556 13.424C114.764 12.7787 114.089 12.016 113.532 11.136C113.004 10.256 112.74 9.25867 112.74 8.144C112.74 6.56 113.18 5.24 114.06 4.184C114.969 3.09867 116.128 2.30667 117.536 1.808C118.944 1.28 120.44 1.016 122.024 1.016C123.05 1.016 124.121 1.11867 125.236 1.324C126.38 1.5 127.26 1.72 127.876 1.984C128.14 2.13067 128.316 2.27733 128.404 2.424C128.492 2.54133 128.536 2.688 128.536 2.864V9.332C128.536 9.42 128.462 9.49333 128.316 9.552C128.169 9.58133 128.066 9.552 128.008 9.464C127.92 9.288 127.597 8.54 127.04 7.22C126.512 5.87067 125.69 4.668 124.576 3.612C123.49 2.52667 122.244 1.984 120.836 1.984C119.662 1.984 118.694 2.336 117.932 3.04C117.169 3.71467 116.788 4.59467 116.788 5.68ZM140.146 29C140.058 29 140.014 28.912 140.014 28.736C140.014 28.56 140.044 28.472 140.102 28.472C141.334 28.472 142.229 28.3987 142.786 28.252C143.373 28.1053 143.769 27.8267 143.974 27.416C144.18 26.976 144.282 26.316 144.282 25.436V5.064C144.312 4.03733 144.18 3.36266 143.886 3.04C143.593 2.688 143.036 2.512 142.214 2.512H141.642C140.645 2.512 139.662 2.83466 138.694 3.48C137.726 4.096 136.905 4.932 136.23 5.988C135.556 7.01467 135.145 8.144 134.998 9.376C134.998 9.43467 134.925 9.464 134.778 9.464C134.69 9.464 134.602 9.44933 134.514 9.42C134.456 9.36133 134.441 9.31733 134.47 9.288C134.617 8.17333 134.837 5.25467 135.13 0.531999C135.13 0.443999 135.204 0.399998 135.35 0.399998C135.438 0.399998 135.512 0.414665 135.57 0.443998C135.658 0.473333 135.702 0.517333 135.702 0.575999C135.702 1.192 136.362 1.5 137.682 1.5C140.058 1.588 143.036 1.632 146.614 1.632C148.228 1.632 150.032 1.60267 152.026 1.544L155.106 1.5C156.074 1.5 156.778 1.42667 157.218 1.28C157.658 1.13333 157.937 0.839998 158.054 0.399998C158.113 0.311998 158.216 0.282665 158.362 0.312C158.538 0.312 158.612 0.370666 158.582 0.488C158.494 1.77867 158.406 3.40667 158.318 5.372C158.23 7.308 158.201 8.61333 158.23 9.288C158.23 9.376 158.142 9.42 157.966 9.42C157.732 9.42 157.614 9.36133 157.614 9.244C157.614 8.04133 157.336 6.92667 156.778 5.9C156.25 4.87333 155.502 4.052 154.534 3.436C153.596 2.82 152.569 2.512 151.454 2.512H150.882C150.296 2.512 149.87 2.58533 149.606 2.732C149.372 2.87867 149.225 3.128 149.166 3.48C149.108 3.80267 149.064 4.36 149.034 5.152L149.078 25.436C149.078 26.3453 149.166 27.0053 149.342 27.416C149.548 27.8267 149.929 28.1053 150.486 28.252C151.044 28.3987 151.953 28.472 153.214 28.472C153.302 28.472 153.346 28.56 153.346 28.736C153.346 28.912 153.302 29 153.214 29C152.129 29 151.278 28.9853 150.662 28.956L146.658 28.912L142.874 28.956C142.229 28.9853 141.32 29 140.146 29ZM163.805 29C163.747 29 163.717 28.912 163.717 28.736C163.717 28.56 163.747 28.472 163.805 28.472C164.715 28.472 165.36 28.3987 165.741 28.252C166.152 28.1053 166.431 27.8267 166.577 27.416C166.724 27.0053 166.797 26.3453 166.797 25.436V5.064C166.797 4.21333 166.709 3.58267 166.533 3.172C166.387 2.732 166.108 2.43866 165.697 2.292C165.287 2.116 164.656 2.028 163.805 2.028C163.747 2.028 163.703 1.94 163.673 1.764C163.673 1.588 163.717 1.5 163.805 1.5L166.005 1.544C167.296 1.60267 168.337 1.632 169.129 1.632C170.009 1.632 171.124 1.60267 172.473 1.544L174.629 1.5C174.688 1.5 174.717 1.588 174.717 1.764C174.717 1.94 174.688 2.028 174.629 2.028C173.749 2.028 173.104 2.116 172.693 2.292C172.283 2.468 172.004 2.76133 171.857 3.172C171.74 3.58267 171.667 4.24267 171.637 5.152V25.436C171.637 26.316 171.711 26.9613 171.857 27.372C172.033 27.7827 172.327 28.076 172.737 28.252C173.148 28.3987 173.779 28.472 174.629 28.472C174.688 28.472 174.717 28.56 174.717 28.736C174.717 28.912 174.688 29 174.629 29C173.72 29 172.987 28.9853 172.429 28.956L169.217 28.912L166.093 28.956C165.536 28.9853 164.773 29 163.805 29ZM195.899 29.528C192.291 29.528 189.328 28.824 187.011 27.416C184.694 26.008 183.022 24.2333 181.995 22.092C180.968 19.9213 180.455 17.6333 180.455 15.228C180.455 12.324 181.159 9.80133 182.567 7.66C184.004 5.48933 185.896 3.84667 188.243 2.732C190.619 1.588 193.186 1.016 195.943 1.016C197.292 1.016 198.7 1.148 200.167 1.412C201.634 1.64667 202.822 1.94 203.731 2.292C203.966 2.43866 204.112 2.57066 204.171 2.688C204.259 2.80533 204.303 3.01066 204.303 3.304L204.611 9.2C204.611 9.288 204.538 9.332 204.391 9.332C204.274 9.332 204.186 9.288 204.127 9.2C203.042 6.97067 201.648 5.25467 199.947 4.052C198.275 2.82 196.368 2.204 194.227 2.204C191.44 2.204 189.299 3.216 187.803 5.24C186.336 7.264 185.603 10.1093 185.603 13.776C185.603 16.416 186.058 18.88 186.967 21.168C187.906 23.456 189.167 25.2747 190.751 26.624C192.335 27.9733 194.08 28.648 195.987 28.648C199.008 28.648 201.824 26.4187 204.435 21.96C204.494 21.872 204.567 21.828 204.655 21.828C204.831 21.828 204.919 21.916 204.919 22.092L204.655 27.152C204.596 27.5333 204.538 27.7827 204.479 27.9C204.42 27.988 204.259 28.076 203.995 28.164C201.414 29.0733 198.715 29.528 195.899 29.528Z" fill="white"/>
</svg>
