<svg width="299" height="55" viewBox="0 0 299 55" fill="none" xmlns="http://www.w3.org/2000/svg">
<path d="M47.71 41.232C47.838 41.232 47.902 41.36 47.902 41.616C47.9447 41.872 47.8807 42 47.71 42C46.43 42 45.406 41.9787 44.638 41.936L39.902 41.872L35.358 41.936C34.59 41.9787 33.502 42 32.094 42C31.966 42 31.902 41.872 31.902 41.616C31.902 41.36 31.966 41.232 32.094 41.232C33.4167 41.232 34.3767 41.1253 34.974 40.912C35.614 40.6987 36.0407 40.2933 36.254 39.696C36.4673 39.056 36.5313 38.096 36.446 36.816L35.55 6.288L23.262 41.552C23.1767 41.7227 23.0273 41.808 22.814 41.808C22.558 41.808 22.366 41.7013 22.238 41.488L8.02999 7.888L7.90199 33.68C7.81666 36.0267 8.22199 37.8827 9.11799 39.248C10.0567 40.5707 11.3367 41.232 12.958 41.232C13.086 41.232 13.15 41.36 13.15 41.616C13.15 41.872 13.086 42 12.958 42C11.8913 42 11.038 41.9787 10.398 41.936L6.62199 41.872L3.29399 41.936C2.65399 41.9787 1.73666 42 0.541993 42C0.45666 42 0.413993 41.872 0.413993 41.616C0.413993 41.36 0.45666 41.232 0.541993 41.232C2.16333 41.232 3.44333 40.5707 4.38199 39.248C5.36333 37.9253 5.85399 36.1333 5.85399 33.872L6.17399 4.88C4.85133 3.472 3.05933 2.768 0.797993 2.768C0.669993 2.768 0.605994 2.64 0.605994 2.384C0.605994 2.128 0.669993 2 0.797993 2C1.43799 2 1.97133 2.02133 2.39799 2.064L5.14999 2.128L9.37399 2.064C9.84333 2.02133 10.4193 2 11.102 2C11.6567 2 12.1047 2.21333 12.446 2.64C12.83 3.06667 13.2993 3.96267 13.854 5.328L25.118 31.632L34.782 3.6C34.91 3.13067 35.166 2.74667 35.55 2.448C35.9767 2.14933 36.4673 2 37.022 2C37.7047 2 38.2807 2.02133 38.75 2.064L41.63 2.128L44.51 2.064C44.9367 2.02133 45.5553 2 46.366 2C46.494 2 46.558 2.128 46.558 2.384C46.558 2.64 46.5153 2.768 46.43 2.768C45.0647 2.768 44.0407 3.00266 43.358 3.472C42.718 3.89867 42.398 4.73067 42.398 5.968C42.398 6.43733 42.4193 6.8 42.462 7.056L43.358 36.816C43.4433 38.096 43.5927 39.056 43.806 39.696C44.062 40.2933 44.4673 40.6987 45.022 40.912C45.5767 41.1253 46.4727 41.232 47.71 41.232ZM94.0275 41.232C94.1555 41.232 94.2195 41.36 94.2195 41.616C94.2195 41.872 94.1555 42 94.0275 42C93.2595 42 92.0648 41.9573 90.4435 41.872C88.6515 41.7867 87.2222 41.744 86.1555 41.744C85.0462 41.744 83.6808 41.7867 82.0595 41.872C80.5235 41.9573 79.3928 42 78.6675 42C78.4968 42 78.4115 41.872 78.4115 41.616C78.4115 41.36 78.4968 41.232 78.6675 41.232C79.9475 41.232 80.8648 41.104 81.4195 40.848C81.9742 40.5493 82.2515 40.0373 82.2515 39.312C82.2515 38.672 81.9955 37.776 81.4835 36.624L75.8515 23.12H65.7395L61.3875 33.744C60.7048 35.3653 60.3635 36.6667 60.3635 37.648C60.3635 38.8853 60.8542 39.8027 61.8355 40.4C62.8168 40.9547 64.3315 41.232 66.3795 41.232C66.5502 41.232 66.6355 41.36 66.6355 41.616C66.6355 41.872 66.5288 42 66.3155 42C65.7608 42 64.5448 41.9573 62.6675 41.872C60.5342 41.7867 58.9128 41.744 57.8035 41.744C56.7795 41.744 55.5848 41.7867 54.2195 41.872C53.0248 41.9573 52.0435 42 51.2755 42C51.1048 42 51.0195 41.872 51.0195 41.616C51.0195 41.36 51.1048 41.232 51.2755 41.232C52.5555 41.232 53.9422 40.5493 55.4355 39.184C56.9715 37.776 58.2942 35.8133 59.4035 33.296L72.9075 1.424C72.9075 1.296 73.0568 1.232 73.3555 1.232C73.7395 1.232 74.0168 1.31733 74.1875 1.488L88.5235 36.624C89.1635 38.1173 89.6328 39.12 89.9315 39.632C90.2728 40.144 90.7422 40.5493 91.3395 40.848C91.9368 41.104 92.8328 41.232 94.0275 41.232ZM66.5075 21.328H75.1475L70.7955 10.896L66.5075 21.328ZM98.9105 54.352C98.7398 54.3947 98.5905 54.3093 98.4625 54.096C98.3772 53.8827 98.3772 53.7333 98.4625 53.648C100.34 52.496 101.684 50.7467 102.494 48.4C103.305 46.096 103.668 43.1093 103.582 39.44V7.184C103.582 5.94667 103.454 5.02933 103.198 4.432C102.985 3.792 102.58 3.36533 101.982 3.152C101.385 2.896 100.468 2.768 99.2305 2.768C99.1025 2.768 99.0385 2.64 99.0385 2.384C99.0385 2.128 99.1025 2 99.2305 2L102.558 2.064C104.35 2.14933 105.801 2.192 106.91 2.192C108.361 2.192 110.025 2.14933 111.902 2.064L114.91 2C115.038 2 115.102 2.128 115.102 2.384C115.145 2.64 115.081 2.768 114.91 2.768C113.673 2.768 112.756 2.896 112.158 3.152C111.561 3.408 111.156 3.856 110.942 4.496C110.772 5.09333 110.665 6.032 110.622 7.312V37.712C110.622 41.04 110.217 43.728 109.406 45.776C108.638 47.8667 107.422 49.552 105.758 50.832C104.094 52.112 101.812 53.2853 98.9105 54.352ZM153.753 31.824C153.838 31.7387 153.945 31.696 154.073 31.696C154.201 31.696 154.329 31.7387 154.457 31.824C154.585 31.8667 154.628 31.9093 154.585 31.952C154.158 34.7253 153.945 37.7547 153.945 41.04C153.945 41.3813 153.881 41.6373 153.753 41.808C153.625 41.936 153.369 42 152.985 42H123.801C123.63 42 123.545 41.872 123.545 41.616C123.545 41.36 123.609 41.232 123.737 41.232C125.017 41.232 125.934 41.1253 126.489 40.912C127.086 40.6987 127.47 40.2933 127.641 39.696C127.854 39.0987 127.961 38.1387 127.961 36.816V7.184C127.961 5.904 127.854 4.96533 127.641 4.368C127.428 3.77066 127.022 3.36533 126.425 3.152C125.828 2.896 124.932 2.768 123.737 2.768C123.609 2.768 123.524 2.64 123.481 2.384C123.481 2.128 123.524 2 123.609 2H151.193C151.534 2 151.705 2.192 151.705 2.576L151.833 11.024C151.833 11.152 151.705 11.216 151.449 11.216C151.236 11.216 151.108 11.1733 151.065 11.088C150.34 8.69866 149.017 6.82133 147.097 5.456C145.22 4.048 142.98 3.344 140.377 3.344H139.161C137.838 3.344 136.878 3.45066 136.281 3.664C135.726 3.83466 135.364 4.176 135.193 4.688C135.022 5.2 134.916 6.05333 134.873 7.248V20.304H142.873C145.049 20.304 146.649 19.92 147.673 19.152C148.697 18.384 149.209 17.1467 149.209 15.44C149.209 15.2693 149.358 15.184 149.657 15.184C149.956 15.184 150.105 15.2907 150.105 15.504L150.041 19.024C149.998 19.536 149.977 20.2613 149.977 21.2C149.977 22.5653 149.998 23.5893 150.041 24.272L150.105 27.728C150.105 27.9413 149.977 28.048 149.721 28.048C149.593 28.048 149.465 28.0267 149.337 27.984C149.252 27.8987 149.209 27.8133 149.209 27.728C149.209 25.8933 148.633 24.5067 147.481 23.568C146.372 22.5867 144.793 22.096 142.745 22.096H134.873V36.56C134.873 38.2667 135.129 39.376 135.641 39.888C136.196 40.4 137.326 40.656 139.033 40.656H140.825C143.598 40.656 146.137 39.8667 148.441 38.288C150.745 36.6667 152.516 34.512 153.753 31.824ZM170.282 8.08C170.282 9.616 170.687 11.0027 171.498 12.24C172.309 13.4773 173.29 14.5653 174.442 15.504C175.637 16.4 177.237 17.488 179.242 18.768C181.418 20.176 183.125 21.392 184.362 22.416C185.642 23.44 186.73 24.6773 187.626 26.128C188.522 27.536 188.97 29.1573 188.97 30.992C188.97 34.6187 187.69 37.4987 185.13 39.632C182.613 41.7227 179.349 42.768 175.338 42.768C173.418 42.768 171.37 42.512 169.194 42C167.018 41.4453 165.567 40.848 164.842 40.208C164.629 40.08 164.479 39.952 164.394 39.824C164.351 39.6533 164.309 39.376 164.266 38.992L164.01 28.816C163.967 28.6453 164.053 28.5387 164.266 28.496C164.522 28.4533 164.693 28.5173 164.778 28.688C165.973 31.1627 167.082 33.2533 168.106 34.96C169.173 36.624 170.453 38.0747 171.946 39.312C173.439 40.5493 175.125 41.168 177.002 41.168C180.757 41.168 182.634 39.12 182.634 35.024C182.634 33.0613 182.186 31.3333 181.29 29.84C180.437 28.3467 179.37 27.1093 178.09 26.128C176.853 25.104 175.189 23.9093 173.098 22.544C171.178 21.3067 169.642 20.24 168.49 19.344C167.338 18.4053 166.357 17.296 165.546 16.016C164.778 14.736 164.394 13.2853 164.394 11.664C164.394 9.36 165.034 7.44 166.314 5.904C167.637 4.32533 169.322 3.17333 171.37 2.448C173.418 1.68 175.594 1.296 177.898 1.296C179.391 1.296 180.949 1.44533 182.57 1.744C184.234 2 185.514 2.32 186.41 2.704C186.794 2.91733 187.05 3.13066 187.178 3.344C187.306 3.51466 187.37 3.728 187.37 3.984V13.392C187.37 13.52 187.263 13.6267 187.05 13.712C186.837 13.7547 186.687 13.712 186.602 13.584C186.474 13.328 186.005 12.24 185.194 10.32C184.426 8.35733 183.231 6.608 181.61 5.072C180.031 3.49333 178.218 2.704 176.17 2.704C174.463 2.704 173.055 3.216 171.946 4.24C170.837 5.22133 170.282 6.50133 170.282 8.08ZM204.258 42C204.13 42 204.066 41.872 204.066 41.616C204.066 41.36 204.109 41.232 204.194 41.232C205.986 41.232 207.288 41.1253 208.098 40.912C208.952 40.6987 209.528 40.2933 209.826 39.696C210.125 39.056 210.274 38.096 210.274 36.816V7.184C210.317 5.69066 210.125 4.70933 209.698 4.24C209.272 3.728 208.461 3.472 207.266 3.472H206.434C204.984 3.472 203.554 3.94133 202.146 4.88C200.738 5.776 199.544 6.992 198.562 8.528C197.581 10.0213 196.984 11.664 196.77 13.456C196.77 13.5413 196.664 13.584 196.45 13.584C196.322 13.584 196.194 13.5627 196.066 13.52C195.981 13.4347 195.96 13.3707 196.002 13.328C196.216 11.7067 196.536 7.46133 196.962 0.591999C196.962 0.463998 197.069 0.399998 197.282 0.399998C197.41 0.399998 197.517 0.421331 197.602 0.463997C197.73 0.506666 197.794 0.570666 197.794 0.655998C197.794 1.552 198.754 2 200.674 2C204.13 2.128 208.461 2.192 213.666 2.192C216.013 2.192 218.637 2.14933 221.538 2.064L226.018 2C227.426 2 228.45 1.89333 229.09 1.68C229.73 1.46666 230.136 1.04 230.306 0.399998C230.392 0.271997 230.541 0.229331 230.754 0.271999C231.01 0.271999 231.117 0.357333 231.074 0.528C230.946 2.40533 230.818 4.77333 230.69 7.632C230.562 10.448 230.52 12.3467 230.562 13.328C230.562 13.456 230.434 13.52 230.178 13.52C229.837 13.52 229.666 13.4347 229.666 13.264C229.666 11.5147 229.261 9.89333 228.45 8.4C227.682 6.90667 226.594 5.712 225.186 4.816C223.821 3.92 222.328 3.472 220.706 3.472H219.874C219.021 3.472 218.402 3.57866 218.018 3.792C217.677 4.00533 217.464 4.368 217.378 4.88C217.293 5.34933 217.229 6.16 217.186 7.312L217.25 36.816C217.25 38.1387 217.378 39.0987 217.634 39.696C217.933 40.2933 218.488 40.6987 219.298 40.912C220.109 41.1253 221.432 41.232 223.266 41.232C223.394 41.232 223.458 41.36 223.458 41.616C223.458 41.872 223.394 42 223.266 42C221.688 42 220.45 41.9787 219.554 41.936L213.73 41.872L208.226 41.936C207.288 41.9787 205.965 42 204.258 42ZM238.671 42C238.586 42 238.543 41.872 238.543 41.616C238.543 41.36 238.586 41.232 238.671 41.232C239.994 41.232 240.933 41.1253 241.487 40.912C242.085 40.6987 242.49 40.2933 242.703 39.696C242.917 39.0987 243.023 38.1387 243.023 36.816V7.184C243.023 5.94667 242.895 5.02933 242.639 4.432C242.426 3.792 242.021 3.36533 241.423 3.152C240.826 2.896 239.909 2.768 238.671 2.768C238.586 2.768 238.522 2.64 238.479 2.384C238.479 2.128 238.543 2 238.671 2L241.871 2.064C243.749 2.14933 245.263 2.192 246.415 2.192C247.695 2.192 249.317 2.14933 251.279 2.064L254.415 2C254.501 2 254.543 2.128 254.543 2.384C254.543 2.64 254.501 2.768 254.415 2.768C253.135 2.768 252.197 2.896 251.599 3.152C251.002 3.408 250.597 3.83467 250.383 4.432C250.213 5.02933 250.106 5.98933 250.063 7.312V36.816C250.063 38.096 250.17 39.0347 250.383 39.632C250.639 40.2293 251.066 40.656 251.663 40.912C252.261 41.1253 253.178 41.232 254.415 41.232C254.501 41.232 254.543 41.36 254.543 41.616C254.543 41.872 254.501 42 254.415 42C253.093 42 252.026 41.9787 251.215 41.936L246.543 41.872L241.999 41.936C241.189 41.9787 240.079 42 238.671 42ZM285.353 42.768C280.105 42.768 275.796 41.744 272.425 39.696C269.054 37.648 266.622 35.0667 265.129 31.952C263.636 28.7947 262.889 25.4667 262.889 21.968C262.889 17.744 263.913 14.0747 265.961 10.96C268.052 7.80267 270.804 5.41333 274.217 3.792C277.673 2.128 281.406 1.296 285.417 1.296C287.38 1.296 289.428 1.488 291.561 1.872C293.694 2.21333 295.422 2.64 296.745 3.152C297.086 3.36533 297.3 3.55733 297.385 3.728C297.513 3.89866 297.577 4.19733 297.577 4.624L298.025 13.2C298.025 13.328 297.918 13.392 297.705 13.392C297.534 13.392 297.406 13.328 297.321 13.2C295.742 9.95733 293.716 7.46133 291.241 5.712C288.809 3.92 286.036 3.024 282.921 3.024C278.868 3.024 275.753 4.496 273.577 7.44C271.444 10.384 270.377 14.5227 270.377 19.856C270.377 23.696 271.038 27.28 272.361 30.608C273.726 33.936 275.561 36.5813 277.865 38.544C280.169 40.5067 282.708 41.488 285.481 41.488C289.876 41.488 293.972 38.2453 297.769 31.76C297.854 31.632 297.961 31.568 298.089 31.568C298.345 31.568 298.473 31.696 298.473 31.952L298.089 39.312C298.004 39.8667 297.918 40.2293 297.833 40.4C297.748 40.528 297.513 40.656 297.129 40.784C293.374 42.1067 289.449 42.768 285.353 42.768Z" fill="#DCCA87"/>
</svg>
